<?xml version="1.0" encoding="UTF-8" standalone="no"?>
<!-- Created with Inkscape (http://www.inkscape.org/) -->

<svg
   width="213.07806mm"
   height="229.84619mm"
   viewBox="0 0 213.07806 229.84619"
   version="1.1"
   id="svg5"
   inkscape:version="1.2.2 (732a01da63, 2022-12-09)"
   sodipodi:docname="drawing.svg"
   xmlns:inkscape="http://www.inkscape.org/namespaces/inkscape"
   xmlns:sodipodi="http://sodipodi.sourceforge.net/DTD/sodipodi-0.dtd"
   xmlns="http://www.w3.org/2000/svg"
   xmlns:svg="http://www.w3.org/2000/svg">
  <sodipodi:namedview
     id="namedview7"
     pagecolor="#ffffff"
     bordercolor="#000000"
     borderopacity="0.25"
     inkscape:showpageshadow="2"
     inkscape:pageopacity="0.0"
     inkscape:pagecheckerboard="0"
     inkscape:deskcolor="#d1d1d1"
     inkscape:document-units="mm"
     showgrid="false"
     inkscape:zoom="0.64693624"
     inkscape:cx="159.21198"
     inkscape:cy="527.09986"
     inkscape:window-width="2560"
     inkscape:window-height="1369"
     inkscape:window-x="-8"
     inkscape:window-y="-8"
     inkscape:window-maximized="1"
     inkscape:current-layer="layer1" />
  <defs
     id="defs2">
    <clipPath
       clipPathUnits="userSpaceOnUse"
       id="clipPath460">
      <rect
         style="fill:#000000;stroke-width:0.264583"
         id="rect462"
         width="213.07806"
         height="229.84619"
         x="0"
         y="0" />
    </clipPath>
    <clipPath
       clipPathUnits="userSpaceOnUse"
       id="clipPath464">
      <rect
         style="fill:#000000;stroke-width:0.264583"
         id="rect466"
         width="213.07806"
         height="229.84619"
         x="0"
         y="0" />
    </clipPath>
    <clipPath
       clipPathUnits="userSpaceOnUse"
       id="clipPath468">
      <rect
         style="fill:#000000;stroke-width:0.264583"
         id="rect470"
         width="213.07806"
         height="229.84619"
         x="0"
         y="0" />
    </clipPath>
    <clipPath
       clipPathUnits="userSpaceOnUse"
       id="clipPath472">
      <rect
         style="fill:#000000;stroke-width:0.264583"
         id="rect474"
         width="213.07806"
         height="229.84619"
         x="0"
         y="0" />
    </clipPath>
    <clipPath
       clipPathUnits="userSpaceOnUse"
       id="clipPath476">
      <rect
         style="fill:#000000;stroke-width:0.264583"
         id="rect478"
         width="213.07806"
         height="229.84619"
         x="0"
         y="0" />
    </clipPath>
    <clipPath
       clipPathUnits="userSpaceOnUse"
       id="clipPath480">
      <rect
         style="fill:#000000;stroke-width:0.264583"
         id="rect482"
         width="213.07806"
         height="229.84619"
         x="0"
         y="0" />
    </clipPath>
    <clipPath
       clipPathUnits="userSpaceOnUse"
       id="clipPath484">
      <rect
         style="fill:#000000;stroke-width:0.264583"
         id="rect486"
         width="213.07806"
         height="229.84619"
         x="0"
         y="0" />
    </clipPath>
    <clipPath
       clipPathUnits="userSpaceOnUse"
       id="clipPath488">
      <rect
         style="fill:#000000;stroke-width:0.264583"
         id="rect490"
         width="213.07806"
         height="229.84619"
         x="0"
         y="0" />
    </clipPath>
  </defs>
  <g
     inkscape:label="Layer 1"
     inkscape:groupmode="layer"
     id="layer1">
    <ellipse
       style="fill:#000000;stroke-width:0.264583"
       id="path162"
       cx="59.139729"
       cy="80.684525"
       rx="103.09688"
       ry="80.684517"
       clip-path="url(#clipPath488)" />
    <rect
       style="fill:#000000;stroke-width:0.264583"
       id="rect326"
       width="224.12366"
       height="275.02142"
       x="0.28919181"
       y="27.473223"
       clip-path="url(#clipPath484)" />
    <path
       style="fill:#000000;stroke-width:0.264583"
       id="path362"
       d="m 207.80801,-0.08026972 c -0.14036,0.67674246 -0.27106,1.35510042 -0.40942,2.03232092 -0.0667,0.4214566 -0.16291,0.8364351 -0.22987,1.257897 -5.3e-4,-0.00956 0.002,-0.037369 -0.002,-0.028681 -0.0643,0.1388986 -0.0819,0.3210544 -0.11694,0.4673542 -0.009,0.035686 0.0282,-0.071467 0.0226,-0.1077421 -0.004,-0.026408 -0.0184,0.050166 -0.0276,0.075249 -0.0931,0.2616547 -0.11038,0.4220512 -0.26351,0.733742 -0.13091,0.3495842 -0.3,0.6833195 -0.44857,1.0260526 -0.17663,0.3185181 -0.26105,0.6833235 -0.44109,0.9990079 -0.20578,0.4017552 -0.41268,0.8035332 -0.59647,1.2161316 -0.12539,0.269979 -0.23811,0.5474708 -0.40606,0.794935 -0.24561,0.3769403 -0.45338,0.7741661 -0.63953,1.1832881 -0.16478,0.2853902 -0.30358,0.5846745 -0.44773,0.8812005 -0.16975,0.330118 -0.35804,0.649503 -0.53593,0.975114 -0.11677,0.222687 -0.24742,0.437707 -0.36933,0.657565 -0.13269,0.239324 -0.0598,0.163655 -0.13687,0.240377 -0.21201,0.315257 -0.37606,0.657679 -0.55913,0.989507 -0.16344,0.351873 -0.37441,0.675899 -0.57934,1.003812 -0.2034,0.307069 -0.37088,0.636288 -0.58124,0.938794 -0.25454,0.441011 -0.51984,0.874529 -0.78186,1.310621 -0.242,0.388093 -0.47577,0.780782 -0.70596,1.175959 -0.24111,0.339193 -0.45004,0.699664 -0.65822,1.059675 -0.20971,0.375052 -0.41994,0.748806 -0.65183,1.11111 -0.17972,0.295736 -0.37659,0.580167 -0.56022,0.873996 0.01,-0.01839 0.0414,-0.07203 0.0292,-0.05517 -0.17432,0.240939 -0.29858,0.506989 -0.49059,0.705911 -0.23701,0.371754 -0.48655,0.734575 -0.73303,1.100009 -0.27322,0.390498 -0.52701,0.792797 -0.7976,1.184728 -0.20449,0.276291 -0.36596,0.615843 -0.62878,0.846152 -0.0256,0.02408 -0.0523,0.04717 -0.0769,0.07225 -0.13465,0.136911 -0.27597,0.277564 -0.407,0.418083 -0.13013,0.139546 -0.1581,0.206184 -0.12441,0.130842 -0.187,0.201776 -0.39037,0.384908 -0.59646,0.56717 -0.23368,0.226178 -0.48006,0.411471 -0.70311,0.57518 -0.24586,0.206294 -0.51783,0.377472 -0.7773,0.565969 -0.34455,0.226528 -0.66758,0.481592 -0.99934,0.725432 -0.28158,0.232391 -0.48134,0.32386 -0.83255,0.551095 -0.40655,0.260022 -0.81651,0.509146 -1.23568,0.74822 -0.50006,0.271463 -0.98569,0.569474 -1.48977,0.833261 -0.57357,0.323789 -1.15922,0.624488 -1.75564,0.903946 -0.50083,0.216839 -0.99579,0.447876 -1.50781,0.637487 -2.6476,0.995016 -1.24043,4.739299 1.40717,3.74428 v 0 c 0.60923,-0.231095 1.20458,-0.495191 1.79959,-0.760529 0.65676,-0.308467 1.30272,-0.63849 1.93536,-0.993841 0.53599,-0.287943 1.0613,-0.595064 1.59335,-0.890349 0.48473,-0.276678 0.9578,-0.568571 1.42965,-0.866304 0.35812,-0.232889 0.73345,-0.440992 1.06428,-0.71328 0.31205,-0.237773 0.62562,-0.470826 0.95165,-0.690036 0.26822,-0.198128 0.55395,-0.372999 0.80858,-0.589063 0.32447,-0.256746 0.6647,-0.494141 0.96152,-0.785217 0.24424,-0.216014 0.48495,-0.436221 0.71014,-0.67169 0.25954,-0.258487 0.50589,-0.529079 0.76925,-0.784003 0.36721,-0.406193 0.70912,-0.836152 0.99655,-1.303375 0.27873,-0.404225 0.54084,-0.818333 0.82218,-1.220775 0.20778,-0.308451 0.42806,-0.610221 0.61367,-0.932389 0.23512,-0.32318 0.43665,-0.630905 0.65738,-0.936421 0.1794,-0.287823 0.37253,-0.566664 0.54914,-0.856344 0.26057,-0.415958 0.50668,-0.840736 0.74639,-1.268812 0.19426,-0.355538 0.41758,-0.688362 0.63955,-1.027207 0.22285,-0.384072 0.45118,-0.76444 0.68574,-1.141574 0.21618,-0.370704 0.45704,-0.727462 0.65386,-1.10928 0.23467,-0.349846 0.44377,-0.714448 0.66729,-1.07116 0.24404,-0.39477 0.49742,-0.784342 0.69652,-1.204938 0.14094,-0.260923 0.26629,-0.529526 0.43368,-0.775152 0.22743,-0.376058 0.43731,-0.762624 0.65033,-1.14704 0.18149,-0.380325 0.43089,-0.730545 0.60689,-1.115159 0.15992,-0.333314 0.32706,-0.661719 0.49802,-0.989586 0.10623,-0.255021 0.24723,-0.487838 0.3959,-0.720816 0.24708,-0.413616 0.47322,-0.8380105 0.66069,-1.2823149 0.14562,-0.3477699 0.33328,-0.6773762 0.50126,-1.0141866 0.1979,-0.4027262 0.3576,-0.820924 0.54773,-1.2273192 0.14306,-0.3394525 0.31561,-0.6669238 0.44287,-1.0128419 0.1365,-0.3241432 0.2585,-0.6525832 0.36786,-0.9869086 0.003,-0.00803 -0.008,0.014674 -0.0126,0.022013 0.13473,-0.3753324 0.22616,-0.7645154 0.31441,-1.1529729 0.053,-0.3593304 0.14438,-0.7117173 0.19638,-1.0713032 0.13117,-0.6439311 0.25725,-1.2885596 0.38773,-1.9325216 0.63599,-2.7559744 -3.26154,-3.6554059 -3.89754,-0.89943146 z"
       clip-path="url(#clipPath480)" />
    <path
       style="fill:#000000;stroke-width:0.264583"
       id="path364"
       d="m 196.77142,29.041174 c 0.94981,-0.768122 1.76408,-1.684403 2.58645,-2.582913 1.21249,-1.304739 2.30799,-2.709504 3.46145,-4.06457 -0.78422,0.952955 -0.31672,0.513413 -3.06588,-0.54766 -0.15206,-0.05869 -0.0753,-0.534343 -0.20951,-0.441835 -0.2156,0.148617 -0.15169,0.501383 -0.23635,0.749178 -0.26614,0.778939 -0.65086,1.788093 -0.9337,2.544145 -0.17135,0.444379 -0.35004,0.886 -0.51406,1.333136 -0.32864,0.895877 -1.38521,3.372226 0.12305,4.013309 2.36975,1.007266 2.98661,-0.224888 4.00779,-1.454142 1.41361,-1.827041 2.66507,-3.770245 3.90434,-5.717227 0.76674,-1.204607 0.40591,-0.68446 0.9422,-1.433823 -1.20984,-0.457 -2.37077,-1.074137 -3.62952,-1.371002 -0.17587,-0.04148 -0.22353,0.28522 -0.31594,0.440496 -0.26938,0.452616 -0.51195,0.920657 -0.76807,1.380903 -0.75394,1.354816 -1.50323,2.712191 -2.26267,4.063931 -0.0329,0.04821 -0.15191,0.120781 -0.0986,0.144633 1.20835,0.54113 2.38219,1.271738 3.69204,1.46459 0.31453,0.04631 0.2759,-0.572871 0.41152,-0.860409 0.58547,-1.241249 1.15631,-2.487754 1.76273,-3.71899 1.06679,-0.07008 1.99156,-0.128936 -3.02971,-0.01895 -0.0717,0.0016 -0.18677,0.0151 -0.19727,0.08607 -0.063,0.425994 -0.0115,0.861268 -0.007,1.291867 0.0216,1.861523 0.0248,1.486601 0.19256,3.354482 0.0838,0.495027 0.13588,0.996503 0.25152,1.48508 0.43355,1.831781 1.3129,3.331821 3.69589,2.788938 1.20456,-0.274418 1.77764,-1.877078 2.23129,-2.784314 0.60932,-1.587449 0.97771,-3.251707 1.2646,-4.923484 0.0845,-0.492223 0.27388,-1.703618 0.2653,-2.287426 -0.004,-0.268894 -0.063,-0.53414 -0.0945,-0.801209 -1.30641,-0.02351 -2.65345,-0.394644 -3.91923,-0.07051 -0.38334,0.09816 -0.2142,0.762492 -0.29545,1.14977 -0.0834,0.397731 -0.13854,0.800962 -0.1981,1.202961 -0.16582,1.119071 -0.27085,2.232134 -0.32364,3.361308 0.0361,0.279077 -0.14494,0.714687 0.10838,0.837234 1.08473,0.524748 2.30126,1.039008 3.4991,0.907915 0.51738,-0.05662 0.53727,-0.895022 0.74471,-1.372362 0.16355,-0.376354 0.25187,-0.781316 0.36291,-1.176364 0.36893,-1.312525 0.41038,-1.630999 0.69849,-3.003662 0.0915,-0.514639 0.18941,-1.02819 0.2746,-1.543916 0.0722,-0.437284 0.13823,-0.87565 0.19764,-1.31486 0.0412,-0.304934 0.0691,-0.611527 0.10428,-0.917223 0.005,-0.04402 0.0607,-0.130611 0.0164,-0.131918 -4.31296,-0.127357 -3.92302,-1.288705 -4.08113,0.933695 -0.10206,2.090679 -0.0968,4.186305 -0.0516,6.278662 0.005,0.07761 -0.0641,0.233267 0.0137,0.232826 1.33663,-0.0076 2.69067,0.0044 4.0018,-0.255605 0.17639,-0.03498 0.006,-0.359618 0.008,-0.539441 0.008,-0.844744 0.008,-1.689601 0.0102,-2.534374 0.003,-1.561703 0.003,-3.123408 0.003,-4.685113 -0.007,-0.883504 -0.006,-1.765625 0.0384,-2.648037 0.055,-0.960827 0.0807,-1.922867 0.0962,-2.885026 0.01,-0.699132 0.0105,-1.398342 0.0106,-2.097529 -1.7e-4,-0.602151 -5.3e-4,-1.2043014 -7.9e-4,-1.8064524 -3e-5,-0.083181 -6e-5,-0.1663618 -8e-5,-0.2495428 -7e-5,-0.2516672 -4e-5,-0.1846014 -9e-5,-0.4094821 -1e-5,-0.025966 0.0259,-0.077256 -2e-5,-0.077897 -4.10192,-0.1012148 -3.89282,-1.3458465 -4.0338,0.2815759 -0.0476,0.9088567 -0.13559,1.8144054 -0.22091,2.7202944 -0.14341,1.311109 -0.27989,2.622486 -0.36972,3.938464 -0.0786,1.222232 -0.0918,2.447092 -0.0992,3.671388 0.002,1.088449 -0.0174,2.177196 0.0176,3.265195 0.032,1.139633 0.13176,2.274692 0.25046,3.407999 0.10996,0.948922 0.26453,1.891262 0.4348,2.830887 0.12479,0.43397 0.15849,0.902531 0.32446,1.325512 0.0667,0.170096 0.0473,0.485 0.2296,0.497756 1.19877,0.08388 2.39851,-0.153289 3.59776,-0.229934 0.0766,-0.227349 0.16902,-0.449956 0.22974,-0.682043 0.0795,-0.303932 0.12529,-0.813432 0.14845,-1.125185 0.0435,-0.585896 0.0509,-1.173986 0.062,-1.761094 -0.008,-1.157816 0.0275,-2.313653 0.074,-3.470246 0.075,-1.376854 0.17494,-2.752461 0.28917,-4.1266 0.10914,-1.181481 0.17155,-2.366113 0.20486,-3.55192 0.0674,-1.055403 -0.0405,-2.100226 -0.22239,-3.138308 -0.12757,-0.91129 -0.39101,-1.790771 -0.63622,-2.6745087 -0.0832,-0.3278262 -0.23769,-0.641618 -0.27188,-0.9810308 -0.012,-0.2343251 -0.0124,-0.4689571 -0.0125,-0.70352 -0.004,-0.2924336 -0.004,-0.5817549 0.0311,-0.8712983 0.25386,-1.6601265 -0.64873,-0.7892049 -3.90441,-0.9766964 -0.0219,-0.00127 -0.22046,0.8990981 -0.24384,1.0008487 -0.15662,0.6476272 -0.34675,1.2842552 -0.58947,1.9048721 -0.36907,0.8844767 -0.75615,1.7612044 -1.15024,2.6348124 -0.30593,0.62811 -0.59163,1.266163 -0.83791,1.920035 -0.18534,0.501343 -0.38054,0.999099 -0.55608,1.504108 -0.18656,0.554835 -0.43521,1.085443 -0.64217,1.632557 -0.179,0.548727 -0.42089,1.072891 -0.6688,1.592999 -0.33368,0.597817 -0.68063,1.187648 -1.00831,1.78898 -0.3834,0.624359 -0.739,1.264715 -1.0162,1.943278 -0.42761,1.465254 -0.40588,0.968451 2.76629,2.624436 0.22708,0.118546 0.4412,-0.263234 0.64236,-0.421848 0.418,-0.329604 0.93366,-0.934927 1.30182,-1.331404 0.6356,-0.678083 1.20313,-1.415954 1.82957,-2.102034 0.27697,-0.303347 0.15035,-0.271581 0.32655,-0.303453 -0.11882,0.07839 -0.2152,0.217662 -0.35647,0.235164 -0.475,0.05885 -0.9786,0.128399 -1.43583,-0.01312 -0.32968,-0.102044 -0.52802,-0.444669 -0.78553,-0.674439 -0.0324,-0.02889 -0.043,-0.117656 -0.0828,-0.100409 -0.0459,0.0199 -0.0219,0.09798 -0.0266,0.147829 -0.014,0.14828 -0.0197,0.297233 -0.0296,0.44585 -0.14216,1.239772 -0.43581,2.458764 -0.78414,3.655468 -0.0178,0.04109 -0.0751,0.162531 -0.0535,0.123278 0.73716,-1.341196 0.052,-1.00204 3.5423,-0.170089 0.19584,0.04668 0.10936,0.390014 0.19917,0.570202 0.0199,0.03991 0.0153,-0.08798 0.019,-0.132421 0.0127,-0.15076 0.0202,-0.301915 0.0303,-0.452872 0.12109,-1.389063 0.24551,-2.781231 0.22892,-4.176427 -0.17822,-0.950197 -0.17556,-1.710322 -1.46229,-2.189291 -0.6173,-0.229783 -1.3331,0.0063 -1.96749,0.183504 -0.3063,0.08556 -0.51576,0.3732 -0.75898,0.578088 -0.26921,0.226782 -0.74376,0.742945 -0.97987,0.992272 -0.98989,1.105001 -1.92014,2.264658 -2.79621,3.461711 -0.47981,0.702379 -0.98125,1.39005 -1.4969,2.066507 -0.41914,0.479695 -0.85291,0.944835 -1.24951,1.443725 -0.35117,0.416025 -0.66583,0.859967 -0.94801,1.325057 -0.83473,1.755291 -0.12469,1.173448 3.19328,2.497494 0.002,5.3e-4 0.6832,-0.754697 0.73721,-0.814485 0.34725,-0.377962 0.17402,-0.190669 0.51965,-0.561919 1.92704,-2.070368 -1.0009,-4.795608 -2.92794,-2.725242 v 0 c -0.3712,0.398893 -0.18452,0.196955 -0.55996,0.605887 -0.21064,0.233209 -0.27975,0.308747 -0.48077,0.534752 -0.0397,0.04462 -0.16743,0.100333 -0.11841,0.134413 1.3636,0.947825 3.91563,0.997961 3.07858,2.367452 0.17733,-0.33134 0.43712,-0.612947 0.66472,-0.908904 0.38276,-0.525325 0.88499,-0.954442 1.27416,-1.475788 0.53062,-0.698161 1.05053,-1.405041 1.54418,-2.129915 0.77525,-1.064276 1.60413,-2.091052 2.47662,-3.077088 0.12668,-0.135204 0.25117,-0.2725 0.38005,-0.40561 0.10427,-0.107691 0.23132,-0.195301 0.31929,-0.316674 0.0156,-0.02151 -0.0515,-0.01432 -0.078,-0.01621 -0.47329,-0.03379 -1.00722,0.142205 -1.42057,-0.09078 -1.06971,-0.602954 -1.01144,-0.796595 -0.94209,-1.405192 0.0375,1.280866 -0.13177,2.561221 -0.22078,3.837157 -0.0235,0.355421 -0.17077,1.948907 0.17212,2.08368 2.70879,1.064688 3.28743,1.145449 3.92441,-0.645747 0.42961,-1.495016 0.7945,-3.017197 0.93656,-4.569349 0.0268,-0.675261 0.10713,-1.878699 -0.27481,-2.471469 -0.2724,-0.422783 -0.5529,-0.909068 -1.00836,-1.122394 -1.23791,-0.579807 -1.5806,-0.240181 -2.46763,0.212075 -0.15692,0.132227 -0.32116,0.256213 -0.47075,0.39668 -0.7885,0.740455 -1.38862,1.662995 -2.1457,2.433104 -0.13018,0.140573 -0.25903,0.282396 -0.39056,0.42172 -0.11288,0.119578 -0.23137,0.233837 -0.34261,0.354943 -0.0332,0.03614 -0.13749,0.103069 -0.0902,0.116301 0.0717,0.02007 0.14926,-0.130469 0.20707,-0.08358 2.71831,2.204603 3.04526,1.284216 2.57097,2.478143 0.0238,-0.117465 0.006,-0.05092 0.10858,-0.250404 0.21335,-0.415593 0.44916,-0.817507 0.68828,-1.218719 0.36191,-0.665169 0.7545,-1.312498 1.10708,-1.982733 0.29869,-0.628261 0.58778,-1.262445 0.80821,-1.923264 0.20581,-0.581144 0.49488,-1.131766 0.67454,-1.723331 0.15996,-0.477226 0.35437,-0.942249 0.52461,-1.415751 0.20231,-0.570859 0.47798,-1.113329 0.73219,-1.66198 0.42489,-0.942276 0.84271,-1.887768 1.23724,-2.843214 0.30409,-0.7993144 0.55905,-1.6143321 0.75502,-2.4472148 0.1853,-0.810057 -0.001,0.017036 0.11354,-0.5167929 0.008,-0.038213 0.0644,-0.104404 0.0266,-0.1141979 -3.93599,-1.018773 -3.71669,-1.7955246 -3.86459,-0.7432285 -0.0494,0.4422962 -0.0665,0.8845139 -0.0572,1.3294164 2.7e-4,0.4253465 10e-4,0.8519519 0.0537,1.274777 0.0781,0.5048962 0.20668,0.9970187 0.3767,1.4790667 0.21215,0.762257 0.44738,1.518572 0.55235,2.306104 0.14086,0.76943 0.21933,1.540655 0.16173,2.32417 -0.0308,1.112806 -0.0899,2.224432 -0.19275,3.333127 -0.11813,1.430618 -0.22344,2.8626 -0.29959,4.296104 -0.0477,1.185318 -0.0842,2.370045 -0.0765,3.556577 -0.009,0.496615 -0.0176,0.992947 -0.0477,1.488853 -0.006,0.106103 -0.0161,0.211992 -0.0238,0.318006 -0.004,0.04785 -0.0577,0.149119 -0.01,0.1436 0.0591,-0.0069 0.0611,-0.10204 0.0917,-0.153057 1.14257,0.03236 2.2916,-0.02851 3.42771,0.09708 0.1046,0.01156 0.0764,0.196107 0.11392,0.294444 0.008,0.01979 -0.0187,-0.03828 -0.0241,-0.05876 -0.0465,-0.176797 -0.0834,-0.355967 -0.12497,-0.533982 -0.0202,-0.08661 -0.0398,-0.173376 -0.0596,-0.260064 -0.15248,-0.841391 -0.29242,-1.684857 -0.39248,-2.534411 -0.10899,-1.040056 -0.20263,-2.081473 -0.231,-3.127445 -0.0377,-1.034385 -0.009,-2.070096 -0.0154,-3.10498 0.007,-1.141922 0.0178,-2.284401 0.0901,-3.42446 0.0864,-1.281347 0.22336,-2.557761 0.3613,-3.834445 0.0863,-0.916448 0.17606,-1.8326213 0.22377,-2.7520992 0.1344,-1.5724917 0.1123,-0.3230292 -3.9514,-0.6234975 -0.0258,-0.00191 2e-5,0.051678 3e-5,0.077517 5e-5,0.2248477 2e-5,0.158237 9e-5,0.4098917 2e-5,0.083301 5e-5,0.166602 8e-5,0.2499029 2.3e-4,0.601335 5.3e-4,1.2026701 7.9e-4,1.8040051 -1.4e-4,0.678071 -7.9e-4,1.356165 -0.0101,2.034185 -0.0146,0.91722 -0.0391,1.834326 -0.0918,2.750261 -0.047,0.948786 -0.0518,1.8973 -0.0433,2.847185 7e-5,1.558577 -1.8e-4,3.117155 -0.003,4.675731 -0.002,0.830746 -0.003,1.661506 -0.01,2.492231 -0.001,0.143834 -0.14716,0.410882 -0.005,0.431491 4.05094,0.586468 4.13013,1.460866 3.98036,0.09487 -0.0433,-1.969089 -0.0481,-3.941251 0.0426,-5.908955 0.15142,-2.149686 0.35053,-0.978329 -3.8788,-1.705431 -0.058,-0.01 -0.0149,0.116711 -0.0214,0.175167 -0.0289,0.256865 -0.0508,0.514589 -0.0851,0.770786 -0.0541,0.403879 -0.11439,0.806982 -0.18035,1.209102 -0.0781,0.476148 -0.16784,0.950313 -0.25176,1.425469 -0.27638,1.334936 -0.26589,1.393217 -0.61069,2.6598 -0.0806,0.296241 -0.25503,0.576222 -0.26146,0.883177 -0.002,0.08706 0.16225,-0.118534 0.24486,-0.091 3.24525,1.081459 3.47132,0.145892 3.12559,1.346371 0.0517,-1.302635 0.23525,-2.576971 0.4289,-3.864737 0.0209,-0.138954 0.18996,-0.37682 0.0556,-0.417869 -1.18421,-0.361726 -2.43452,-0.453748 -3.65178,-0.680622 0.004,-0.106295 0.0194,-0.424904 0.0109,-0.318883 -0.0169,0.21217 -0.0125,0.42599 -0.0364,0.637494 -0.15148,1.344212 -0.41655,2.695822 -0.77127,4.000678 -0.10674,0.392688 -0.24297,0.776762 -0.36445,1.165144 -0.0847,0.225819 -0.34633,0.454618 -0.25407,0.677455 0.0657,0.158689 0.34803,-0.102737 0.51249,-0.05323 0.55058,0.165727 1.09265,0.384643 1.58347,0.684128 0.0889,0.05427 0.0983,0.398666 0.0447,0.309332 -0.11622,-0.193712 -0.18488,-0.414776 -0.23947,-0.633981 -0.0957,-0.384098 -0.13967,-0.77924 -0.2095,-1.168863 -0.15734,-1.644482 -0.15439,-1.264285 -0.17558,-2.974338 -0.005,-0.430523 0.0904,-3.064759 -0.28907,-3.313282 -2.89536,-1.896418 -3.01251,-1.231187 -4.06639,0.176519 -0.61309,1.247108 -1.19372,2.507915 -1.78517,3.765349 -0.15836,0.336659 -0.72251,0.727708 -0.47835,1.008423 0.8855,1.018069 2.15368,1.644761 3.34196,2.283934 0.12606,0.06781 0.15353,-0.241623 0.2303,-0.362434 0.76242,-1.357286 1.5155,-2.719777 2.27188,-4.080441 0.27389,-0.492697 0.56531,-0.976094 0.82063,-1.478666 0.24741,-0.487027 1.04955,-1.079889 0.68652,-1.488076 -0.87652,-0.985542 -2.37002,-1.158151 -3.55503,-1.737227 -0.67834,0.965867 -1.28334,1.977714 -1.92598,2.967604 -0.88084,1.356794 -1.78525,2.69982 -2.76994,3.984153 -1.22647,1.602526 0.009,-0.40129 1.80964,1.016127 0.4897,0.385419 0.23987,1.231107 0.47522,1.808142 0.0552,0.135342 0.0449,-0.289809 0.0869,-0.429803 0.22366,-0.744783 0.60229,-1.675148 0.87228,-2.375625 0.25501,-0.682362 0.79383,-2.098263 1.0218,-2.807299 0.12749,-0.396509 0.29253,-0.788164 0.34244,-1.201665 0.0668,-0.553581 0.41307,-1.293308 0.005,-1.672794 -0.79534,-0.738766 -1.97484,-0.975599 -3.04588,-1.152237 -0.28337,-0.04673 -0.44808,0.359372 -0.67213,0.539057 -1.1197,1.3195 -2.1872,2.683523 -3.36413,3.95424 -0.68288,0.746165 -1.35264,1.514288 -2.13451,2.160028 -2.20861,1.766892 0.29015,4.890344 2.49877,3.123451 z"
       clip-path="url(#clipPath476)" />
    <path
       style="fill:#000000;stroke-width:0.264583"
       id="path366"
       d="m 203.42207,14.06402 c -0.49364,0.68124 -0.9888,1.362184 -1.48854,2.039302 -0.40047,0.597211 -0.88719,1.126661 -1.341,1.682185 -0.40094,0.531082 -0.81976,1.048256 -1.21582,1.583129 -0.38217,0.44943 -0.74941,0.912258 -1.14077,1.353746 -0.43682,0.447093 -0.84167,0.921363 -1.23281,1.408397 -0.35052,0.482276 -0.77401,0.905377 -1.19002,1.330444 -0.41487,0.432317 -0.85127,0.842276 -1.28229,1.25798 -0.30509,0.368072 -0.69432,0.6238 -1.06987,0.909433 -0.31764,0.197192 -0.61504,0.42759 -0.94589,0.60298 -0.4216,0.186386 -0.80037,0.461156 -1.226,0.636901 -0.36112,0.176733 -0.72462,0.342399 -1.10045,0.484679 -0.48876,0.162142 -0.99693,0.251362 -1.49952,0.359651 -0.62715,0.132834 -1.25403,0.265599 -1.88527,0.377894 -0.70793,0.107421 -1.41427,0.224464 -2.12566,0.30716 -0.94154,0.111347 -1.87893,0.254952 -2.81645,0.395422 -0.76505,0.09805 -1.53467,0.160973 -2.30418,0.213109 -0.91551,0.03143 -1.82776,0.11381 -2.74182,0.170066 -0.44962,0.02347 -0.89976,0.03241 -1.34982,0.04198 -2.82775,0.06066 -2.74197,4.059711 0.0858,3.99905 v 0 c 0.5037,-0.0109 1.0075,-0.02125 1.51065,-0.04867 0.92268,-0.05719 1.84351,-0.139592 2.76766,-0.171747 0.87689,-0.06027 1.75411,-0.132082 2.6255,-0.248134 0.8955,-0.134646 1.79094,-0.271782 2.6903,-0.378534 0.79141,-0.0941 1.57814,-0.219673 2.36546,-0.342786 0.67653,-0.122492 1.34953,-0.261395 2.02186,-0.4049 0.69764,-0.150923 1.40183,-0.283871 2.07435,-0.52969 0.44659,-0.169723 0.88255,-0.361503 1.31142,-0.571678 0.5315,-0.243329 1.03342,-0.5413 1.55611,-0.802875 0.49135,-0.2819 0.96339,-0.594641 1.42655,-0.920758 0.48549,-0.38376 1.00263,-0.730118 1.41061,-1.203836 0.45584,-0.442904 0.92113,-0.876101 1.36057,-1.335844 0.50677,-0.518442 1.01689,-1.038947 1.44916,-1.622675 0.35443,-0.441342 0.72391,-0.867662 1.11936,-1.27334 0.46284,-0.530163 0.91111,-1.073625 1.35496,-1.619679 0.35548,-0.485066 0.73843,-0.949059 1.09789,-1.430981 0.49205,-0.60668 1.02275,-1.18326 1.45862,-1.833916 0.51886,-0.703985 1.03315,-1.411719 1.54626,-2.119632 1.62199,-2.31712 -1.65492,-4.610953 -3.2769,-2.293832 z"
       clip-path="url(#clipPath472)" />
    <path
       style="fill:#000000;stroke-width:0.264583"
       id="path372"
       d="m 181.41232,31.908152 c 1.34859,-0.06066 2.69549,-0.151292 4.04265,-0.237496 1.21214,-0.100618 2.42883,-0.154858 3.63788,-0.291822 0.68376,-0.07746 1.18589,-0.16093 1.86426,-0.264721 1.89584,-0.274923 3.74427,-0.782997 5.58059,-1.315789 1.69075,-0.512455 3.34869,-1.124394 5.02482,-1.68176 0.51433,-0.175985 1.03331,-0.3371 1.55473,-0.490482 2.71274,-0.800571 1.58055,-4.636968 -1.13219,-3.836394 v 0 c -0.56475,0.167123 -1.12753,0.340509 -1.68485,0.531309 -1.62754,0.541348 -3.23796,1.133892 -4.87822,1.63611 -1.66898,0.485341 -3.34807,0.953264 -5.07157,1.203314 -0.5203,0.08009 -1.11146,0.176524 -1.63592,0.236376 -1.16811,0.13331 -2.3439,0.183846 -3.51501,0.282056 -1.36428,0.08733 -2.72834,0.177594 -4.09395,0.24111 -2.82008,0.216929 -2.5133,4.205118 0.30678,3.988189 z"
       clip-path="url(#clipPath468)" />
    <path
       style="fill:#000000;stroke-width:0.264583"
       id="path374"
       d="m 149.19431,30.081159 c -0.88084,-0.130218 -1.7575,-0.288139 -2.63052,-0.462936 -0.69179,-0.140603 -1.36873,-0.334966 -2.04696,-0.528069 -1.22286,-0.306856 -2.44487,-0.60842 -3.65545,-0.96176 -0.97426,-0.297593 -1.94346,-0.60918 -2.90137,-0.955755 -0.88292,-0.338627 -1.74889,-0.715903 -2.60911,-1.10796 -0.89868,-0.396779 -1.77777,-0.836716 -2.6481,-1.29192 -0.94887,-0.444915 -1.8514,-0.972647 -2.74854,-1.512006 -2.42445,-1.456675 -4.48451,1.972022 -2.06005,3.428696 v 0 c 0.9651,0.57953 1.93661,1.146977 2.95557,1.628175 0.93454,0.488272 1.87852,0.960225 2.84287,1.387104 0.95803,0.43625 1.9232,0.855049 2.90735,1.229577 1.03725,0.374766 2.0863,0.713219 3.14148,1.03409 1.21905,0.355258 2.44824,0.664935 3.68071,0.969036 0.78036,0.221866 1.56057,0.441381 2.35633,0.602922 0.96873,0.193953 1.94176,0.368631 2.91965,0.509886 2.80657,0.350822 3.3027,-3.618261 0.49614,-3.96908 z"
       clip-path="url(#clipPath464)" />
    <path
       style="fill:#000000;stroke-width:0.264583"
       id="path378"
       d="m 124.2361,23.3828 c 1.54725,1.042177 3.17148,1.958159 4.80003,2.864873 1.44868,0.797638 2.92457,1.550579 4.45372,2.183362 1.08852,0.45045 1.41504,0.543941 2.53173,0.928758 2.48352,0.767578 5.03758,1.285325 7.61292,1.626754 0.65854,0.08731 1.31953,0.15508 1.97929,0.232619 3.30913,0.354484 6.63528,0.468358 9.96109,0.471411 2.82841,0.0016 2.83083,-3.998259 0.002,-3.999971 v 0 c -3.17129,-7.94e-4 -6.34283,-0.109492 -9.49848,-0.444286 -2.9561,-0.344527 -5.91104,-0.770387 -8.75838,-1.669742 -0.95205,-0.325477 -1.29777,-0.427109 -2.22303,-0.80826 -1.41381,-0.58241 -2.77723,-1.27826 -4.11558,-2.015498 -1.55481,-0.865578 -3.10655,-1.738064 -4.58272,-2.734709 -2.37919,-1.529482 -4.5422,1.835207 -2.16301,3.364689 z"
       clip-path="url(#clipPath460)" />
  </g>
</svg>
