<svg id="visual" viewBox="0 0 960 150" width="960" height="150" xmlns="http://www.w3.org/2000/svg" xmlns:xlink="http://www.w3.org/1999/xlink" version="1.1">
<defs>
<linearGradient id="grad1" x1="0%" y1="0%" x2="100%" y2="0%">
<stop offset="0%" style="stop-color:rgb(233,134,89);stop-opacity:1" />
      <stop offset="100%" style="stop-color:rgb(193,94,49);stop-opacity:1" />
    </linearGradient>
    </defs>
    <!-- <path d="M0 24L32 25.7C64 27.3 128 30.7 192 41C256 51.3 320 68.7 384 68.5C448 68.3 512 50.7 576 39.7C640 28.7 704 24.3 768 28.7C832 33 896 46 928 52.5L960 59L960 151L928 151C896 151 832 151 768 151C704 151 640 151 576 151C512 151 448 151 384 151C320 151 256 151 192 151C128 151 64 151 32 151L0 151Z" fill="#e98659"></path> -->
    <path d="M0 70L32 78.2C64 86.3 128 102.7 192 103.3C256 104 320 89 384 81.5C448 74 512 74 576 80.8C640 87.7 704 101.3 768 110.3C832 119.3 896 123.7 928 125.8L960 128L960 151L928 151C896 151 832 151 768 151C704 151 640 151 576 151C512 151 448 151 384 151C320 151 256 151 192 151C128 151 64 151 32 151L0 151Z" fill="#fafafa"></path></svg>